<svg viewBox="0 0 260 140" xmlns="http://www.w3.org/2000/svg" role="img" aria-label="MovingPace">
  <!-- speed streaks -->
  <g fill="#f5a800">
    <polygon points="0,50 60,44 60,58 10,58" />
    <polygon points="16,72 60,66 60,80 24,80" />
    <polygon points="6,94 60,88 60,102 14,102" />
  </g>
  <!-- cargo box -->
  <rect x="66" y="30" width="94" height="72" rx="9" fill="#f5f6fa" />
  <!-- cab -->
  <path d="M166 102 V50 h30 q7 0 10.5 6 l14 25 q2.5 4.5 2.5 9 v7 a5 5 0 0 1 -5 5 z" fill="#f5f6fa" />
  <!-- cab window -->
  <path d="M173 58 h20 q4 0 6 3.5 l8.5 15.5 h-34.5 z" fill="#0a1128" />
  <!-- ground swoosh -->
  <path d="M62 116 q60 14 154 -2 q-70 8 -154 2 z" fill="#f5a800" />
  <!-- wheels -->
  <circle cx="100" cy="106" r="14" fill="#f5f6fa" />
  <circle cx="100" cy="106" r="6.5" fill="#0a1128" />
  <circle cx="188" cy="106" r="14" fill="#f5f6fa" />
  <circle cx="188" cy="106" r="6.5" fill="#0a1128" />
</svg>
